<?xml version="1.0" standalone="no"?>
<!DOCTYPE svg PUBLIC "-//W3C//DTD SVG 20010904//EN"
 "http://www.w3.org/TR/2001/REC-SVG-20010904/DTD/svg10.dtd">
<svg version="1.0" xmlns="http://www.w3.org/2000/svg"
 width="260.000000pt" height="260.000000pt" viewBox="0 0 260.000000 260.000000"
 preserveAspectRatio="xMidYMid meet">
<metadata>
Created by potrace 1.11, written by Peter Selinger 2001-2013
</metadata>
<g transform="translate(0.000000,260.000000) scale(0.100000,-0.100000)"
fill="#000000" stroke="none">
<path d="M0 1300 l0 -1300 1300 0 1300 0 0 1300 0 1300 -1300 0 -1300 0 0
-1300z m849 605 c134 -32 237 -111 289 -223 24 -50 27 -69 27 -162 0 -95 -3
-111 -29 -167 -27 -59 -94 -135 -155 -174 l-24 -15 172 -237 c94 -131 171
-240 171 -242 0 -3 -64 -4 -142 -3 l-142 3 -160 218 -160 218 -91 -3 -90 -3
-3 -217 -2 -218 -125 0 -125 0 0 620 0 620 263 0 c198 0 278 -4 326 -15z
m1491 -100 l0 -115 -195 0 -195 0 -2 -502 -3 -503 -127 -3 -128 -3 0 506 0
505 -200 0 -200 0 0 108 c0 60 3 112 7 115 3 4 240 7 525 7 l518 0 0 -115z"/>
<path d="M512 1518 l3 -173 135 0 c161 0 196 12 237 82 22 37 25 53 21 104 -5
63 -23 97 -72 133 -24 19 -44 21 -177 24 l-149 3 2 -173z"/>
</g>
</svg>
